<svg width="23" height="25" viewBox="0 0 23 25" fill="none" xmlns="http://www.w3.org/2000/svg">
<path d="M11.0766 12.2209C14.287 12.2209 16.8895 9.61835 16.8895 6.40796C16.8895 3.19757 14.287 0.595032 11.0766 0.595032C7.86621 0.595032 5.26367 3.19757 5.26367 6.40796C5.26367 9.61835 7.86621 12.2209 11.0766 12.2209Z" fill="#FF3232"/>
<path opacity="0.4" d="M11.0767 15.1274C5.25217 15.1274 0.508789 19.0337 0.508789 23.8468C0.508789 24.1724 0.764558 24.4281 1.09008 24.4281H21.0634C21.3889 24.4281 21.6447 24.1724 21.6447 23.8468C21.6447 19.0337 16.9013 15.1274 11.0767 15.1274Z" fill="#FF3232"/>
<path d="M22.0395 15.4064C20.9931 14.3601 20.1677 14.6972 19.4586 15.4064L15.343 19.522C15.1802 19.6848 15.0291 19.987 14.9942 20.2079L14.7733 21.7774C14.6919 22.347 15.0872 22.7423 15.6569 22.6609L17.2264 22.44C17.4472 22.4052 17.7612 22.254 17.9123 22.0913L22.0278 17.9757C22.7486 17.2782 23.0858 16.4527 22.0395 15.4064Z" fill="#FF3232"/>
</svg>
