<svg width="23" height="23" viewBox="0 0 23 23" fill="none" xmlns="http://www.w3.org/2000/svg">
<path d="M10.6784 14.7736L8.59094 16.861C8.15089 17.3011 7.45131 17.3011 6.99997 16.8723C6.87585 16.7482 6.75173 16.6353 6.62761 16.5112C5.4654 15.3377 4.41604 14.1078 3.4795 12.8215C2.55425 11.5352 1.80954 10.2489 1.26793 8.97382C0.737602 7.6875 0.466797 6.45759 0.466797 5.2841C0.466797 4.51682 0.602199 3.78339 0.873004 3.10638C1.14381 2.41808 1.57258 1.78621 2.17061 1.22203C2.89276 0.511167 3.68261 0.161377 4.51759 0.161377C4.83353 0.161377 5.14947 0.229078 5.43155 0.364481C5.72493 0.499883 5.98445 0.702987 6.18755 0.996359L8.80533 4.68608C9.00844 4.96816 9.15512 5.22769 9.25667 5.47592C9.35822 5.71288 9.41464 5.94983 9.41464 6.16422C9.41464 6.43502 9.33566 6.70583 9.17769 6.96535C9.031 7.22487 8.81662 7.49568 8.54581 7.76648L7.68826 8.65788C7.56414 8.782 7.50772 8.92869 7.50772 9.10922C7.50772 9.19949 7.51901 9.27848 7.54158 9.36874C7.57543 9.45901 7.60928 9.52671 7.63184 9.59441C7.83495 9.96677 8.18474 10.452 8.68121 11.0387C9.18897 11.6255 9.73058 12.2235 10.3173 12.8215C10.4302 12.9343 10.5543 13.0472 10.6671 13.16C11.1185 13.6001 11.1297 14.3222 10.6784 14.7736Z" fill="#9D72D6"/>
<path d="M22.9997 18.5875C22.9997 18.9034 22.9433 19.2306 22.8305 19.5466C22.7966 19.6368 22.7628 19.7271 22.7176 19.8174C22.5258 20.2236 22.2776 20.6072 21.9504 20.9683C21.3975 21.5776 20.7882 22.0177 20.0999 22.2997C20.0886 22.2997 20.0773 22.311 20.066 22.311C19.4003 22.5818 18.6781 22.7285 17.8996 22.7285C16.7486 22.7285 15.5187 22.4577 14.2211 21.9048C12.9235 21.3519 11.6259 20.6072 10.3396 19.6707C9.89954 19.3435 9.45948 19.0162 9.04199 18.6664L12.7317 14.9767C13.0476 15.2137 13.3297 15.3942 13.5667 15.5183C13.6231 15.5409 13.6908 15.5748 13.7698 15.6086C13.8601 15.6425 13.9503 15.6537 14.0519 15.6537C14.2437 15.6537 14.3904 15.586 14.5145 15.4619L15.3721 14.6157C15.6541 14.3336 15.9249 14.1192 16.1845 13.9838C16.444 13.8258 16.7035 13.7468 16.9856 13.7468C17.2 13.7468 17.4257 13.792 17.6739 13.8935C17.9221 13.9951 18.1817 14.1418 18.4637 14.3336L22.1986 16.9852C22.492 17.1883 22.6951 17.4253 22.8192 17.7073C22.932 17.9894 22.9997 18.2715 22.9997 18.5875Z" fill="#9D72D6" fill-opacity="0.53"/>
</svg>
